<svg width="25" height="23" viewBox="0 0 25 23" fill="none" xmlns="http://www.w3.org/2000/svg">
<path d="M20.7238 8.75C22.1934 8.75 24.75 9.99609 24.75 11.5C24.75 13.0469 22.1934 14.25 20.7238 14.25H15.7137L11.3953 21.8082C11.1504 22.2379 10.6949 22.5 10.2008 22.5H7.78594C7.33047 22.5 6.99961 22.0617 7.12422 21.6234L9.22969 14.25H4.8125L2.95625 16.725C2.82734 16.8969 2.62109 17 2.40625 17H0.601562C0.266406 17 0 16.7293 0 16.3984C0 16.3426 0.00859375 16.2867 0.0214844 16.2309L1.375 11.5L0.0214844 6.76914C0.00429688 6.71328 0 6.65742 0 6.60156C0 6.26641 0.270703 6 0.601562 6H2.40625C2.62109 6 2.82734 6.10313 2.95625 6.275L4.8125 8.75H9.23398L7.12852 1.37656C6.99961 0.938281 7.33047 0.5 7.78594 0.5H10.2008C10.6949 0.5 11.1504 0.766406 11.3953 1.1918L15.7137 8.75H20.7238Z" fill="#659D03"/>
</svg>
