<svg width="160" height="28" viewBox="0 0 160 28" fill="none" xmlns="http://www.w3.org/2000/svg">
<path d="M21.2238 11.25C22.6934 11.25 25.25 12.4961 25.25 14C25.25 15.5469 22.6934 16.75 21.2238 16.75H16.2137L11.8953 24.3082C11.6504 24.7379 11.1949 25 10.7008 25H8.28594C7.83047 25 7.49961 24.5617 7.62422 24.1234L9.72969 16.75H5.3125L3.45625 19.225C3.32734 19.3969 3.12109 19.5 2.90625 19.5H1.10156C0.766406 19.5 0.5 19.2293 0.5 18.8984C0.5 18.8426 0.508594 18.7867 0.521484 18.7309L1.875 14L0.521484 9.26914C0.504297 9.21328 0.5 9.15742 0.5 9.10156C0.5 8.76641 0.770703 8.5 1.10156 8.5H2.90625C3.12109 8.5 3.32734 8.60313 3.45625 8.775L5.3125 11.25H9.73398L7.62852 3.87656C7.49961 3.43828 7.83047 3 8.28594 3H10.7008C11.1949 3 11.6504 3.26641 11.8953 3.6918L16.2137 11.25H21.2238Z" fill="#659D03"/>
<path d="M45.73 8.22C47.1167 8.22 48.2167 8.64 49.03 9.48C49.8567 10.32 50.27 11.4867 50.27 12.98V19.5H46.87V13.44C46.87 12.72 46.6767 12.1667 46.29 11.78C45.9167 11.38 45.3967 11.18 44.73 11.18C44.0633 11.18 43.5367 11.38 43.15 11.78C42.7767 12.1667 42.59 12.72 42.59 13.44V19.5H39.19V13.44C39.19 12.72 38.9967 12.1667 38.61 11.78C38.2367 11.38 37.7167 11.18 37.05 11.18C36.3833 11.18 35.8567 11.38 35.47 11.78C35.0967 12.1667 34.91 12.72 34.91 13.44V19.5H31.49V8.34H34.91V9.74C35.2567 9.27333 35.71 8.90667 36.27 8.64C36.83 8.36 37.4633 8.22 38.17 8.22C39.01 8.22 39.7567 8.4 40.41 8.76C41.0767 9.12 41.5967 9.63333 41.97 10.3C42.3567 9.68667 42.8833 9.18667 43.55 8.8C44.2167 8.41333 44.9433 8.22 45.73 8.22ZM54.3819 7.18C53.7819 7.18 53.2885 7.00667 52.9019 6.66C52.5285 6.3 52.3419 5.86 52.3419 5.34C52.3419 4.80667 52.5285 4.36667 52.9019 4.02C53.2885 3.66 53.7819 3.48 54.3819 3.48C54.9685 3.48 55.4485 3.66 55.8219 4.02C56.2085 4.36667 56.4019 4.80667 56.4019 5.34C56.4019 5.86 56.2085 6.3 55.8219 6.66C55.4485 7.00667 54.9685 7.18 54.3819 7.18ZM56.0819 8.34V19.5H52.6619V8.34H56.0819ZM72.8003 8.22C74.187 8.22 75.287 8.64 76.1003 9.48C76.927 10.32 77.3403 11.4867 77.3403 12.98V19.5H73.9403V13.44C73.9403 12.72 73.747 12.1667 73.3603 11.78C72.987 11.38 72.467 11.18 71.8003 11.18C71.1336 11.18 70.607 11.38 70.2203 11.78C69.847 12.1667 69.6603 12.72 69.6603 13.44V19.5H66.2603V13.44C66.2603 12.72 66.067 12.1667 65.6803 11.78C65.307 11.38 64.787 11.18 64.1203 11.18C63.4536 11.18 62.927 11.38 62.5403 11.78C62.167 12.1667 61.9803 12.72 61.9803 13.44V19.5H58.5603V8.34H61.9803V9.74C62.327 9.27333 62.7803 8.90667 63.3403 8.64C63.9003 8.36 64.5336 8.22 65.2403 8.22C66.0803 8.22 66.827 8.4 67.4803 8.76C68.147 9.12 68.667 9.63333 69.0403 10.3C69.427 9.68667 69.9536 9.18667 70.6203 8.8C71.287 8.41333 72.0136 8.22 72.8003 8.22ZM81.4522 7.18C80.8522 7.18 80.3589 7.00667 79.9722 6.66C79.5989 6.3 79.4122 5.86 79.4122 5.34C79.4122 4.80667 79.5989 4.36667 79.9722 4.02C80.3589 3.66 80.8522 3.48 81.4522 3.48C82.0389 3.48 82.5189 3.66 82.8922 4.02C83.2789 4.36667 83.4722 4.80667 83.4722 5.34C83.4722 5.86 83.2789 6.3 82.8922 6.66C82.5189 7.00667 82.0389 7.18 81.4522 7.18ZM83.1522 8.34V19.5H79.7322V8.34H83.1522ZM91.8506 16.6V19.5H90.1106C88.8706 19.5 87.904 19.2 87.2106 18.6C86.5173 17.9867 86.1706 16.9933 86.1706 15.62V11.18H84.8106V8.34H86.1706V5.62H89.5906V8.34H91.8306V11.18H89.5906V15.66C89.5906 15.9933 89.6706 16.2333 89.8306 16.38C89.9906 16.5267 90.2573 16.6 90.6306 16.6H91.8506ZM97.1756 10.2C97.5756 9.58667 98.0756 9.10667 98.6756 8.76C99.2756 8.4 99.9423 8.22 100.676 8.22V11.84H99.7356C98.8823 11.84 98.2423 12.0267 97.8156 12.4C97.389 12.76 97.1756 13.4 97.1756 14.32V19.5H93.7556V8.34H97.1756V10.2ZM101.63 13.9C101.63 12.7533 101.844 11.7467 102.27 10.88C102.71 10.0133 103.304 9.34667 104.05 8.88C104.797 8.41333 105.63 8.18 106.55 8.18C107.337 8.18 108.024 8.34 108.61 8.66C109.21 8.98 109.67 9.4 109.99 9.92V8.34H113.41V19.5H109.99V17.92C109.657 18.44 109.19 18.86 108.59 19.18C108.004 19.5 107.317 19.66 106.53 19.66C105.624 19.66 104.797 19.4267 104.05 18.96C103.304 18.48 102.71 17.8067 102.27 16.94C101.844 16.06 101.63 15.0467 101.63 13.9ZM109.99 13.92C109.99 13.0667 109.75 12.3933 109.27 11.9C108.804 11.4067 108.23 11.16 107.55 11.16C106.87 11.16 106.29 11.4067 105.81 11.9C105.344 12.38 105.11 13.0467 105.11 13.9C105.11 14.7533 105.344 15.4333 105.81 15.94C106.29 16.4333 106.87 16.68 107.55 16.68C108.23 16.68 108.804 16.4333 109.27 15.94C109.75 15.4467 109.99 14.7733 109.99 13.92ZM120.905 16.3L123.325 8.34H126.965L123.005 19.5H118.785L114.825 8.34H118.485L120.905 16.3ZM138.924 13.74C138.924 14.06 138.904 14.3933 138.864 14.74H131.124C131.177 15.4333 131.397 15.9667 131.784 16.34C132.184 16.7 132.671 16.88 133.244 16.88C134.097 16.88 134.691 16.52 135.024 15.8H138.664C138.477 16.5333 138.137 17.1933 137.644 17.78C137.164 18.3667 136.557 18.8267 135.824 19.16C135.091 19.4933 134.271 19.66 133.364 19.66C132.271 19.66 131.297 19.4267 130.444 18.96C129.591 18.4933 128.924 17.8267 128.444 16.96C127.964 16.0933 127.724 15.08 127.724 13.92C127.724 12.76 127.957 11.7467 128.424 10.88C128.904 10.0133 129.571 9.34667 130.424 8.88C131.277 8.41333 132.257 8.18 133.364 8.18C134.444 8.18 135.404 8.40667 136.244 8.86C137.084 9.31333 137.737 9.96 138.204 10.8C138.684 11.64 138.924 12.62 138.924 13.74ZM135.424 12.84C135.424 12.2533 135.224 11.7867 134.824 11.44C134.424 11.0933 133.924 10.92 133.324 10.92C132.751 10.92 132.264 11.0867 131.864 11.42C131.477 11.7533 131.237 12.2267 131.144 12.84H135.424ZM144.148 4.7V19.5H140.728V4.7H144.148Z" fill="#003D2A"/>
<path d="M148.227 19.66C147.627 19.66 147.133 19.4867 146.747 19.14C146.373 18.78 146.187 18.34 146.187 17.82C146.187 17.2867 146.373 16.84 146.747 16.48C147.133 16.12 147.627 15.94 148.227 15.94C148.813 15.94 149.293 16.12 149.667 16.48C150.053 16.84 150.247 17.2867 150.247 17.82C150.247 18.34 150.053 18.78 149.667 19.14C149.293 19.4867 148.813 19.66 148.227 19.66Z" fill="#FFD243"/>
</svg>
